<?xml version="1.0" encoding="UTF-8" standalone="no"?><!DOCTYPE svg PUBLIC "-//W3C//DTD SVG 1.1//EN" "http://www.w3.org/Graphics/SVG/1.1/DTD/svg11.dtd"><svg width="100%" height="100%" viewBox="0 0 34 34" version="1.1" xmlns="http://www.w3.org/2000/svg" xmlns:xlink="http://www.w3.org/1999/xlink" xml:space="preserve" xmlns:serif="http://www.serif.com/" style="fill-rule:evenodd;clip-rule:evenodd;stroke-linecap:round;stroke-miterlimit:1;"><path d="M33.333,8.333c0,-4.599 -3.734,-8.333 -8.333,-8.333l-16.667,0c-4.599,0 -8.333,3.734 -8.333,8.333l-0,16.667c-0,4.599 3.734,8.333 8.333,8.333l16.667,0c4.599,0 8.333,-3.734 8.333,-8.333l0,-16.667Z" style="fill:#fff;"/><g><path d="M26.094,25.088c0,-0.192 -0.155,-0.347 -0.346,-0.347l-18.162,0c-0.192,0 -0.347,0.155 -0.347,0.347l0,5.444c0,0.192 0.155,0.347 0.347,0.347l18.162,-0c0.191,-0 0.346,-0.155 0.346,-0.347l0,-5.444Z" style="fill:none;stroke:#000;stroke-width:1.04px;"/><path d="M12.05,25.46c0,-0.397 -0.322,-0.719 -0.719,-0.719l-3.243,0c-0.397,0 -0.719,0.322 -0.719,0.719l-0,4.7c-0,0.397 0.322,0.719 0.719,0.719l3.243,-0c0.397,-0 0.719,-0.322 0.719,-0.719l0,-4.7Z" style="fill:#ff2a49;stroke:#000;stroke-width:0.83px;"/><path d="M16.732,25.46c-0,-0.397 -0.323,-0.719 -0.72,-0.719l-3.243,0c-0.397,0 -0.719,0.322 -0.719,0.719l0,4.7c0,0.397 0.322,0.719 0.719,0.719l3.243,-0c0.397,-0 0.72,-0.322 0.72,-0.719l-0,-4.7Z" style="fill:#fff629;stroke:#000;stroke-width:0.83px;"/><path d="M21.413,25.46c-0,-0.397 -0.322,-0.719 -0.719,-0.719l-3.243,0c-0.397,0 -0.719,0.322 -0.719,0.719l-0,4.7c-0,0.397 0.322,0.719 0.719,0.719l3.243,-0c0.397,-0 0.719,-0.322 0.719,-0.719l-0,-4.7Z" style="fill:#29bdff;stroke:#000;stroke-width:0.83px;"/><path d="M26.094,25.46c0,-0.397 -0.322,-0.719 -0.719,-0.719l-3.243,0c-0.397,0 -0.719,0.322 -0.719,0.719l-0,4.7c-0,0.397 0.322,0.719 0.719,0.719l3.243,-0c0.397,-0 0.719,-0.322 0.719,-0.719l0,-4.7Z" style="fill:#1dff1c;stroke:#000;stroke-width:0.83px;"/></g><g><path d="M8.421,22.539c0,-1.41 0.048,-2.81 0.048,-4.228c-0,-0.425 0.231,-1.277 -0.054,-1.652c-0.156,-0.204 -0.606,-0.292 -0.845,-0.401c-0.814,-0.374 -1.636,-0.466 -2.389,-0.953c-0.454,-0.293 -1.145,-0.924 -1.328,-1.389c-0.144,-0.365 -0.313,-0.755 -0.621,-1.051" style="fill:none;stroke:#000;stroke-width:2.08px;"/><path d="M3.549,13.369c0,-0.253 -0.189,-0.471 -0.273,-0.704c-0.078,-0.215 -0.03,-0.531 -0.021,-0.755c0.084,-2.157 1.729,-4.298 4.255,-4.751c0.733,-0.132 1.36,-0.211 2.143,-0.211c0.283,0 0.707,-0.034 0.937,0.123" style="fill:none;stroke:#000;stroke-width:2.08px;"/><path d="M10.619,7.095c0,-0.448 0.224,-0.98 0.391,-1.4c0.913,-2.289 2.977,-3.781 5.849,-3.781" style="fill:none;stroke:#000;stroke-width:2.08px;"/><path d="M16.917,1.914c0.375,-0 0.867,0.222 1.267,0.272c2.058,0.256 3.776,1.568 4.325,3.304c0.125,0.396 0.657,1.286 0.324,1.714" style="fill:none;stroke:#000;stroke-width:2.08px;"/><path d="M24.861,22.664c-0,-1.894 -0.038,-3.765 -0.038,-5.66" style="fill:none;stroke:#000;stroke-width:2.08px;"/><path d="M24.823,16.979c0.159,0 0.408,-0.177 0.537,-0.25c0.303,-0.172 0.831,-0.22 1.178,-0.371c0.545,-0.236 1.045,-0.476 1.556,-0.762c0.35,-0.195 0.494,-0.642 0.736,-0.917c0.695,-0.789 1.232,-2.303 0.892,-3.325c-0.097,-0.295 -0.237,-0.666 -0.293,-0.955" style="fill:none;stroke:#000;stroke-width:2.08px;"/><path d="M29.429,10.374c-0,-0.631 -0.546,-1.254 -0.979,-1.719c-0.202,-0.216 -0.616,-0.274 -0.788,-0.524" style="fill:none;stroke:#000;stroke-width:2.08px;"/><path d="M22.712,7.363c1.536,0 3.431,-0.419 4.707,0.611" style="fill:none;stroke:#000;stroke-width:2.08px;"/><path d="M6.911,12.329c0,-1.114 1.557,-2.172 2.857,-2.172" style="fill:none;stroke:#000;stroke-width:2.08px;"/></g></svg>